# xmcd
#
# Track frame offsets:
#	150
#	15060
#	38978
#	57048
#	74463
#	86198
#	108563
#	118775
#	141940
#
# Disc length: 2171 seconds
# Revision: 1
# Processed by: cddbd v1.5.2PL0 Copyright (c) Steve Scherf et al.
# Submitted via: dBpowerAMP V12.0
#
DISCID=78087909
DTITLE=Various Artist - A Tribute To Duke [dBP-LITE02-1-FLAC@]
DYEAR=1989
DGENRE=Jazz
TTITLE0=Bing Crosby - Don't Get Around Much Any More
TTITLE1=Bill Berry - Main Stem
TTITLE2=Woody Herman - In A Sentimental Mood
TTITLE3=Rosemary Clooney - I'm Checking Out
TTITLE4=Tony Bennett - Prelude To A Kiss
TTITLE5=Bill Berry - It Don't Mean A Thing If It Ain't Got That Swing
TTITLE6=Tony Bennett - I'm Just A Lucky So And So
TTITLE7=Bill Berry - What Am I Here For
TTITLE8=Rosemary Clooney - Sophisticated Lady
EXTD=
EXTT0=
EXTT1=
EXTT2=
EXTT3=
EXTT4=
EXTT5=
EXTT6=
EXTT7=
EXTT8=
PLAYORDER=
